<svg id="mermaidChart1251" width="100%" xmlns="http://www.w3.org/2000/svg" height="100%" style="max-width:3650px;" viewBox="-50 -10 3650 1587"><style>
  /* Flowchart variables */
/* Sequence Diagram variables */
/* Gantt chart variables */
.mermaid .label {
  font-family: 'trebuchet ms', verdana, arial;
  color: #333;
}
.node rect,
.node circle,
.node ellipse,
.node polygon {
  fill: #cde498;
  stroke: #13540c;
  stroke-width: 1px;
}
.arrowheadPath {
  fill: green;
}
.edgePath .path {
  stroke: green;
  stroke-width: 1.5px;
}
.edgeLabel {
  background-color: #e8e8e8;
}
.cluster rect {
  fill: #cdffb2 !important;
  rx: 4 !important;
  stroke: #6eaa49 !important;
  stroke-width: 1px !important;
}
.cluster text {
  fill: #333;
}
.actor {
  stroke: #13540c;
  fill: #cde498;
}
text.actor {
  fill: black;
  stroke: none;
}
.actor-line {
  stroke: grey;
}
.messageLine0 {
  stroke-width: 1.5;
  stroke-dasharray: "2 2";
  marker-end: "url(#arrowhead)";
  stroke: #333;
}
.messageLine1 {
  stroke-width: 1.5;
  stroke-dasharray: "2 2";
  stroke: #333;
}
#arrowhead {
  fill: #333;
}
#crosshead path {
  fill: #333 !important;
  stroke: #333 !important;
}
.messageText {
  fill: #333;
  stroke: none;
}
.labelBox {
  stroke: #326932;
  fill: #cde498;
}
.labelText {
  fill: black;
  stroke: none;
}
.loopText {
  fill: black;
  stroke: none;
}
.loopLine {
  stroke-width: 2;
  stroke-dasharray: "2 2";
  marker-end: "url(#arrowhead)";
  stroke: #326932;
}
.note {
  stroke: #6eaa49;
  fill: #fff5ad;
}
.noteText {
  fill: black;
  stroke: none;
  font-family: 'trebuchet ms', verdana, arial;
  font-size: 14px;
}
/** Section styling */
.section {
  stroke: none;
  opacity: 0.2;
}
.section0 {
  fill: #6eaa49;
}
.section2 {
  fill: #6eaa49;
}
.section1,
.section3 {
  fill: white;
  opacity: 0.2;
}
.sectionTitle0 {
  fill: #333;
}
.sectionTitle1 {
  fill: #333;
}
.sectionTitle2 {
  fill: #333;
}
.sectionTitle3 {
  fill: #333;
}
.sectionTitle {
  text-anchor: start;
  font-size: 11px;
  text-height: 14px;
}
/* Grid and axis */
.grid .tick {
  stroke: lightgrey;
  opacity: 0.3;
  shape-rendering: crispEdges;
}
.grid path {
  stroke-width: 0;
}
/* Today line */
.today {
  fill: none;
  stroke: red;
  stroke-width: 2px;
}
/* Task styling */
/* Default task */
.task {
  stroke-width: 2;
}
.taskText {
  text-anchor: middle;
  font-size: 11px;
}
.taskTextOutsideRight {
  fill: black;
  text-anchor: start;
  font-size: 11px;
}
.taskTextOutsideLeft {
  fill: black;
  text-anchor: end;
  font-size: 11px;
}
/* Specific task settings for the sections*/
.taskText0,
.taskText1,
.taskText2,
.taskText3 {
  fill: white;
}
.task0,
.task1,
.task2,
.task3 {
  fill: #487e3a;
  stroke: #13540c;
}
.taskTextOutside0,
.taskTextOutside2 {
  fill: black;
}
.taskTextOutside1,
.taskTextOutside3 {
  fill: black;
}
/* Active task */
.active0,
.active1,
.active2,
.active3 {
  fill: #cde498;
  stroke: #13540c;
}
.activeText0,
.activeText1,
.activeText2,
.activeText3 {
  fill: black !important;
}
/* Completed task */
.done0,
.done1,
.done2,
.done3 {
  stroke: grey;
  fill: lightgrey;
  stroke-width: 2;
}
.doneText0,
.doneText1,
.doneText2,
.doneText3 {
  fill: black !important;
}
/* Tasks on the critical line */
.crit0,
.crit1,
.crit2,
.crit3 {
  stroke: #ff8888;
  fill: red;
  stroke-width: 2;
}
.activeCrit0,
.activeCrit1,
.activeCrit2,
.activeCrit3 {
  stroke: #ff8888;
  fill: #cde498;
  stroke-width: 2;
}
.doneCrit0,
.doneCrit1,
.doneCrit2,
.doneCrit3 {
  stroke: #ff8888;
  fill: lightgrey;
  stroke-width: 2;
  cursor: pointer;
  shape-rendering: crispEdges;
}
.doneCritText0,
.doneCritText1,
.doneCritText2,
.doneCritText3 {
  fill: black !important;
}
.activeCritText0,
.activeCritText1,
.activeCritText2,
.activeCritText3 {
  fill: black !important;
}
.titleText {
  text-anchor: middle;
  font-size: 18px;
  fill: black;
}
g.classGroup text {
  fill: #13540c;
  stroke: none;
  font-family: 'trebuchet ms', verdana, arial;
  font-size: 10px;
}
g.classGroup rect {
  fill: #cde498;
  stroke: #13540c;
}
g.classGroup line {
  stroke: #13540c;
  stroke-width: 1;
}
svg .classLabel .box {
  stroke: none;
  stroke-width: 0;
  fill: #cde498;
  opacity: 0.5;
}
svg .classLabel .label {
  fill: #13540c;
  font-size: 10px;
}
.relation {
  stroke: #13540c;
  stroke-width: 1;
  fill: none;
}
.composition {
  fill: #13540c;
  stroke: #13540c;
  stroke-width: 1;
}
#compositionStart {
  fill: #13540c;
  stroke: #13540c;
  stroke-width: 1;
}
#compositionEnd {
  fill: #13540c;
  stroke: #13540c;
  stroke-width: 1;
}
.aggregation {
  fill: #cde498;
  stroke: #13540c;
  stroke-width: 1;
}
#aggregationStart {
  fill: #cde498;
  stroke: #13540c;
  stroke-width: 1;
}
#aggregationEnd {
  fill: #cde498;
  stroke: #13540c;
  stroke-width: 1;
}
#dependencyStart {
  fill: #13540c;
  stroke: #13540c;
  stroke-width: 1;
}
#dependencyEnd {
  fill: #13540c;
  stroke: #13540c;
  stroke-width: 1;
}
#extensionStart {
  fill: #13540c;
  stroke: #13540c;
  stroke-width: 1;
}
#extensionEnd {
  fill: #13540c;
  stroke: #13540c;
  stroke-width: 1;
}
.node text {
  font-family: 'trebuchet ms', verdana, arial;
  font-size: 14px;
}
div.mermaidTooltip {
  position: absolute;
  text-align: center;
  max-width: 200px;
  padding: 2px;
  font-family: 'trebuchet ms', verdana, arial;
  font-size: 12px;
  background: #cdffb2;
  border: 1px solid #6eaa49;
  border-radius: 2px;
  pointer-events: none;
  z-index: 100;
}

svg {
  color: rgba(0, 0, 0, 0.65);
  font: normal normal normal normal 12px / 18px "Helvetica Neue For Number", -apple-system, BlinkMacSystemFont, "Segoe UI", Roboto, "PingFang SC", "Hiragino Sans GB", "Microsoft YaHei", "Helvetica Neue", Helvetica, Arial, sans-serif;
}
  </style><g></g><g><line id="actor16419" x1="75" y1="5" x2="75" y2="1576" class="actor-line" stroke-width="0.5px" stroke="#999"></line><rect x="0" y="0" fill="#eaeaea" stroke="#666" width="150" height="65" rx="3" ry="3" class="actor"></rect><text x="75" y="32.5" style="text-anchor: middle;" dominant-baseline="central" alignment-baseline="central" class="actor"><tspan x="75" dy="0">CLI</tspan></text></g><g><line id="actor16420" x1="275" y1="5" x2="275" y2="1576" class="actor-line" stroke-width="0.5px" stroke="#999"></line><rect x="200" y="0" fill="#eaeaea" stroke="#666" width="150" height="65" rx="3" ry="3" class="actor"></rect><text x="275" y="32.5" style="text-anchor: middle;" dominant-baseline="central" alignment-baseline="central" class="actor"><tspan x="275" dy="0">main.js</tspan></text></g><g><line id="actor16421" x1="475" y1="5" x2="475" y2="1576" class="actor-line" stroke-width="0.5px" stroke="#999"></line><rect x="400" y="0" fill="#eaeaea" stroke="#666" width="150" height="65" rx="3" ry="3" class="actor"></rect><text x="475" y="32.5" style="text-anchor: middle;" dominant-baseline="central" alignment-baseline="central" class="actor"><tspan x="475" dy="0">indexer.js</tspan></text></g><g><line id="actor16422" x1="675" y1="5" x2="675" y2="1576" class="actor-line" stroke-width="0.5px" stroke="#999"></line><rect x="600" y="0" fill="#eaeaea" stroke="#666" width="150" height="65" rx="3" ry="3" class="actor"></rect><text x="675" y="32.5" style="text-anchor: middle;" dominant-baseline="central" alignment-baseline="central" class="actor"><tspan x="675" dy="0">unzip.js</tspan></text></g><g><line id="actor16423" x1="875" y1="5" x2="875" y2="1576" class="actor-line" stroke-width="0.5px" stroke="#999"></line><rect x="800" y="0" fill="#eaeaea" stroke="#666" width="150" height="65" rx="3" ry="3" class="actor"></rect><text x="875" y="32.5" style="text-anchor: middle;" dominant-baseline="central" alignment-baseline="central" class="actor"><tspan x="875" dy="0">indexCourse.js</tspan></text></g><g><line id="actor16424" x1="1075" y1="5" x2="1075" y2="1576" class="actor-line" stroke-width="0.5px" stroke="#999"></line><rect x="1000" y="0" fill="#eaeaea" stroke="#666" width="150" height="65" rx="3" ry="3" class="actor"></rect><text x="1075" y="32.5" style="text-anchor: middle;" dominant-baseline="central" alignment-baseline="central" class="actor"><tspan x="1075" dy="0">preImport.js</tspan></text></g><g><line id="actor16425" x1="1275" y1="5" x2="1275" y2="1576" class="actor-line" stroke-width="0.5px" stroke="#999"></line><rect x="1200" y="0" fill="#eaeaea" stroke="#666" width="150" height="65" rx="3" ry="3" class="actor"></rect><text x="1275" y="32.5" style="text-anchor: middle;" dominant-baseline="central" alignment-baseline="central" class="actor"><tspan x="1275" dy="0">Fix Modules</tspan></text></g><g><line id="actor16426" x1="1475" y1="5" x2="1475" y2="1576" class="actor-line" stroke-width="0.5px" stroke="#999"></line><rect x="1400" y="0" fill="#eaeaea" stroke="#666" width="150" height="65" rx="3" ry="3" class="actor"></rect><text x="1475" y="32.5" style="text-anchor: middle;" dominant-baseline="central" alignment-baseline="central" class="actor"><tspan x="1475" dy="0">zipCourse.js</tspan></text></g><g><line id="actor16427" x1="1675" y1="5" x2="1675" y2="1576" class="actor-line" stroke-width="0.5px" stroke="#999"></line><rect x="1600" y="0" fill="#eaeaea" stroke="#666" width="150" height="65" rx="3" ry="3" class="actor"></rect><text x="1675" y="32.5" style="text-anchor: middle;" dominant-baseline="central" alignment-baseline="central" class="actor"><tspan x="1675" dy="0">importCourse.js</tspan></text></g><g><line id="actor16428" x1="1875" y1="5" x2="1875" y2="1576" class="actor-line" stroke-width="0.5px" stroke="#999"></line><rect x="1800" y="0" fill="#eaeaea" stroke="#666" width="150" height="65" rx="3" ry="3" class="actor"></rect><text x="1875" y="32.5" style="text-anchor: middle;" dominant-baseline="central" alignment-baseline="central" class="actor"><tspan x="1875" dy="0">createCourse.js</tspan></text></g><g><line id="actor16429" x1="2075" y1="5" x2="2075" y2="1576" class="actor-line" stroke-width="0.5px" stroke="#999"></line><rect x="2000" y="0" fill="#eaeaea" stroke="#666" width="150" height="65" rx="3" ry="3" class="actor"></rect><text x="2075" y="32.5" style="text-anchor: middle;" dominant-baseline="central" alignment-baseline="central" class="actor"><tspan x="2075" dy="0">uploadCourse.js</tspan></text></g><g><line id="actor16430" x1="2275" y1="5" x2="2275" y2="1576" class="actor-line" stroke-width="0.5px" stroke="#999"></line><rect x="2200" y="0" fill="#eaeaea" stroke="#666" width="150" height="65" rx="3" ry="3" class="actor"></rect><text x="2275" y="32.5" style="text-anchor: middle;" dominant-baseline="central" alignment-baseline="central" class="actor"><tspan x="2275" dy="0">migrationIssues.js</tspan></text></g><g><line id="actor16431" x1="2475" y1="5" x2="2475" y2="1576" class="actor-line" stroke-width="0.5px" stroke="#999"></line><rect x="2400" y="0" fill="#eaeaea" stroke="#666" width="150" height="65" rx="3" ry="3" class="actor"></rect><text x="2475" y="32.5" style="text-anchor: middle;" dominant-baseline="central" alignment-baseline="central" class="actor"><tspan x="2475" dy="0">postImport.js</tspan></text></g><g><line id="actor16432" x1="2675" y1="5" x2="2675" y2="1576" class="actor-line" stroke-width="0.5px" stroke="#999"></line><rect x="2600" y="0" fill="#eaeaea" stroke="#666" width="150" height="65" rx="3" ry="3" class="actor"></rect><text x="2675" y="32.5" style="text-anchor: middle;" dominant-baseline="central" alignment-baseline="central" class="actor"><tspan x="2675" dy="0">API Fixes</tspan></text></g><g><line id="actor16433" x1="2875" y1="5" x2="2875" y2="1576" class="actor-line" stroke-width="0.5px" stroke="#999"></line><rect x="2800" y="0" fill="#eaeaea" stroke="#666" width="150" height="65" rx="3" ry="3" class="actor"></rect><text x="2875" y="32.5" style="text-anchor: middle;" dominant-baseline="central" alignment-baseline="central" class="actor"><tspan x="2875" dy="0">cleanUp.js</tspan></text></g><g><line id="actor16434" x1="3075" y1="5" x2="3075" y2="1576" class="actor-line" stroke-width="0.5px" stroke="#999"></line><rect x="3000" y="0" fill="#eaeaea" stroke="#666" width="150" height="65" rx="3" ry="3" class="actor"></rect><text x="3075" y="32.5" style="text-anchor: middle;" dominant-baseline="central" alignment-baseline="central" class="actor"><tspan x="3075" dy="0">deleteCourse.js</tspan></text></g><g><line id="actor16435" x1="3275" y1="5" x2="3275" y2="1576" class="actor-line" stroke-width="0.5px" stroke="#999"></line><rect x="3200" y="0" fill="#eaeaea" stroke="#666" width="150" height="65" rx="3" ry="3" class="actor"></rect><text x="3275" y="32.5" style="text-anchor: middle;" dominant-baseline="central" alignment-baseline="central" class="actor"><tspan x="3275" dy="0">removeFiles.js</tspan></text></g><g><line id="actor16436" x1="3475" y1="5" x2="3475" y2="1576" class="actor-line" stroke-width="0.5px" stroke="#999"></line><rect x="3400" y="0" fill="#eaeaea" stroke="#666" width="150" height="65" rx="3" ry="3" class="actor"></rect><text x="3475" y="32.5" style="text-anchor: middle;" dominant-baseline="central" alignment-baseline="central" class="actor"><tspan x="3475" dy="0">generateReport.js</tspan></text></g><defs><marker id="arrowhead" refX="5" refY="2" markerWidth="6" markerHeight="4" orient="auto"><path d="M 0,0 V 4 L6,2 Z"></path></marker></defs><defs><marker id="crosshead" markerWidth="15" markerHeight="8" orient="auto" refX="16" refY="4"><path fill="black" stroke="#000000" stroke-width="1px" d="M 9,2 V 6 L16,4 Z" style="stroke-dasharray: 0, 0;"></path><path fill="none" stroke="#000000" stroke-width="1px" d="M 0,1 L 6,7 M 6,1 L 0,7" style="stroke-dasharray: 0, 0;"></path></marker></defs><g><rect x="70" y="67" fill="#f4f4f4" stroke="#666" width="10" height="1424" rx="0" ry="0"></rect></g><g><text x="177.5" y="93" class="messageText" style="text-anchor: middle;">courseZipDir, Options</text><line x1="80" y1="100" x2="275" y2="100" class="messageLine0" stroke-width="2" stroke="black" marker-end="url(#arrowhead)" style="fill: none;"></line></g><g><rect x="270" y="102" fill="#f4f4f4" stroke="#666" width="10" height="1389" rx="0" ry="0"></rect></g><g><text x="377.5" y="128" class="messageText" style="text-anchor: middle;">course + options</text><line x1="280" y1="135" x2="475" y2="135" class="messageLine0" stroke-width="2" stroke="black" marker-end="url(#crosshead)" style="fill: none;"></line></g><g><rect x="470" y="137" fill="#f4f4f4" stroke="#666" width="10" height="173" rx="0" ry="0"></rect></g><g><text x="577.5" y="163" class="messageText" style="text-anchor: middle;">course</text><line x1="480" y1="170" x2="675" y2="170" class="messageLine0" stroke-width="2" stroke="black" marker-end="url(#crosshead)" style="fill: none;"></line></g><g><rect x="670" y="172" fill="#f4f4f4" stroke="#666" width="10" height="33" rx="0" ry="0"></rect></g><g><text x="575" y="198" class="messageText" style="text-anchor: middle;">course + unzipped dir</text><line x1="670" y1="205" x2="480" y2="205" class="messageLine0" stroke-width="2" stroke="black" marker-end="url(#arrowhead)" style="fill: none;"></line></g><g><text x="677.5" y="233" class="messageText" style="text-anchor: middle;">course</text><line x1="480" y1="240" x2="875" y2="240" class="messageLine0" stroke-width="2" stroke="black" marker-end="url(#crosshead)" style="fill: none;"></line></g><g><rect x="870" y="242" fill="#f4f4f4" stroke="#666" width="10" height="33" rx="0" ry="0"></rect></g><g><text x="675" y="268" class="messageText" style="text-anchor: middle;">course + course info</text><line x1="870" y1="275" x2="480" y2="275" class="messageLine0" stroke-width="2" stroke="black" marker-end="url(#arrowhead)" style="fill: none;"></line></g><g><text x="375" y="303" class="messageText" style="text-anchor: middle;">course</text><line x1="470" y1="310" x2="280" y2="310" class="messageLine0" stroke-width="2" stroke="black" marker-end="url(#arrowhead)" style="fill: none;"></line></g><g><text x="677.5" y="338" class="messageText" style="text-anchor: middle;">course</text><line x1="280" y1="345" x2="1075" y2="345" class="messageLine0" stroke-width="2" stroke="black" marker-end="url(#crosshead)" style="fill: none;"></line></g><g><rect x="1070" y="347" fill="#f4f4f4" stroke="#666" width="10" height="344" rx="0" ry="0"></rect></g><g><text x="1177.5" y="398" class="messageText" style="text-anchor: middle;">course</text><line x1="1080" y1="405" x2="1275" y2="405" class="messageLine0" stroke-width="2" stroke="black" marker-end="url(#crosshead)" style="fill: none;"></line></g><g><rect x="1270" y="407" fill="#f4f4f4" stroke="#666" width="10" height="169" rx="0" ry="0"></rect></g><g><rect x="1300" y="415" fill="#EDF2AE" stroke="#666" width="150" height="126" rx="0" ry="0" class="note"></rect><text x="1316" y="440" fill="black" class="noteText"><tspan x="1316">As many changes to</tspan><tspan dy="18" x="1316">the files before</tspan><tspan dy="18" x="1316">zipping and uploading</tspan><tspan dy="18" x="1316">to the new course</tspan><tspan dy="18" x="1316">need to be made, are</tspan><tspan dy="18" x="1316">made here</tspan></text></g><g><text x="1175" y="569" class="messageText" style="text-anchor: middle;">course + change</text><line x1="1270" y1="576" x2="1080" y2="576" class="messageLine0" stroke-width="2" stroke="black" marker-end="url(#arrowhead)" style="fill: none;"></line></g><g><line x1="1060" y1="355" x2="1460" y2="355" class="loopLine"></line><line x1="1460" y1="355" x2="1460" y2="586" class="loopLine"></line><line x1="1060" y1="586" x2="1460" y2="586" class="loopLine"></line><line x1="1060" y1="355" x2="1060" y2="586" class="loopLine"></line><polygon points="1060,355 1110,355 1110,368 1101.6,375 1060,375" class="labelBox"></polygon><text x="1067.5" y="370" fill="black" class="labelText"><tspan x="1067.5" fill="black">loop</tspan></text><text x="1260" y="370" fill="black" class="loopText" style="text-anchor: middle;"><tspan x="1260" fill="black">[ Each Fix Module ]</tspan></text></g><g><text x="1277.5" y="614" class="messageText" style="text-anchor: middle;">course</text><line x1="1080" y1="621" x2="1475" y2="621" class="messageLine0" stroke-width="2" stroke="black" marker-end="url(#crosshead)" style="fill: none;"></line></g><g><rect x="1470" y="623" fill="#f4f4f4" stroke="#666" width="10" height="33" rx="0" ry="0"></rect></g><g><text x="1275" y="649" class="messageText" style="text-anchor: middle;">course + zipped dir</text><line x1="1470" y1="656" x2="1080" y2="656" class="messageLine0" stroke-width="2" stroke="black" marker-end="url(#arrowhead)" style="fill: none;"></line></g><g><text x="675" y="684" class="messageText" style="text-anchor: middle;">course + changes</text><line x1="1070" y1="691" x2="280" y2="691" class="messageLine0" stroke-width="2" stroke="black" marker-end="url(#arrowhead)" style="fill: none;"></line></g><g><text x="977.5" y="719" class="messageText" style="text-anchor: middle;">course</text><line x1="280" y1="726" x2="1675" y2="726" class="messageLine0" stroke-width="2" stroke="black" marker-end="url(#crosshead)" style="fill: none;"></line></g><g><rect x="1670" y="728" fill="#f4f4f4" stroke="#666" width="10" height="243" rx="0" ry="0"></rect></g><g><text x="1777.5" y="754" class="messageText" style="text-anchor: middle;">course</text><line x1="1680" y1="761" x2="1875" y2="761" class="messageLine0" stroke-width="2" stroke="black" marker-end="url(#crosshead)" style="fill: none;"></line></g><g><rect x="1870" y="763" fill="#f4f4f4" stroke="#666" width="10" height="33" rx="0" ry="0"></rect></g><g><text x="1775" y="789" class="messageText" style="text-anchor: middle;">course</text><line x1="1870" y1="796" x2="1680" y2="796" class="messageLine0" stroke-width="2" stroke="black" marker-end="url(#arrowhead)" style="fill: none;"></line></g><g><text x="1877.5" y="824" class="messageText" style="text-anchor: middle;">course</text><line x1="1680" y1="831" x2="2075" y2="831" class="messageLine0" stroke-width="2" stroke="black" marker-end="url(#crosshead)" style="fill: none;"></line></g><g><rect x="2070" y="833" fill="#f4f4f4" stroke="#666" width="10" height="33" rx="0" ry="0"></rect></g><g><text x="1875" y="859" class="messageText" style="text-anchor: middle;">course</text><line x1="2070" y1="866" x2="1680" y2="866" class="messageLine0" stroke-width="2" stroke="black" marker-end="url(#arrowhead)" style="fill: none;"></line></g><g><text x="1977.5" y="894" class="messageText" style="text-anchor: middle;">course</text><line x1="1680" y1="901" x2="2275" y2="901" class="messageLine0" stroke-width="2" stroke="black" marker-end="url(#crosshead)" style="fill: none;"></line></g><g><rect x="2270" y="903" fill="#f4f4f4" stroke="#666" width="10" height="33" rx="0" ry="0"></rect></g><g><text x="1975" y="929" class="messageText" style="text-anchor: middle;">course + migration issues</text><line x1="2270" y1="936" x2="1680" y2="936" class="messageLine0" stroke-width="2" stroke="black" marker-end="url(#arrowhead)" style="fill: none;"></line></g><g><text x="975" y="964" class="messageText" style="text-anchor: middle;">course + migration data</text><line x1="1670" y1="971" x2="280" y2="971" class="messageLine0" stroke-width="2" stroke="black" marker-end="url(#arrowhead)" style="fill: none;"></line></g><g><text x="1377.5" y="999" class="messageText" style="text-anchor: middle;">course</text><line x1="280" y1="1006" x2="2475" y2="1006" class="messageLine0" stroke-width="2" stroke="black" marker-end="url(#crosshead)" style="fill: none;"></line></g><g><rect x="2470" y="1008" fill="#f4f4f4" stroke="#666" width="10" height="238" rx="0" ry="0"></rect></g><g><text x="2577.5" y="1059" class="messageText" style="text-anchor: middle;">course</text><line x1="2480" y1="1066" x2="2675" y2="1066" class="messageLine0" stroke-width="2" stroke="black" marker-end="url(#crosshead)" style="fill: none;"></line></g><g><rect x="2670" y="1068" fill="#f4f4f4" stroke="#666" width="10" height="133" rx="0" ry="0"></rect></g><g><rect x="2700" y="1076" fill="#EDF2AE" stroke="#666" width="150" height="90" rx="0" ry="0" class="note"></rect><text x="2716" y="1101" fill="black" class="noteText"><tspan x="2716">Each of the</tspan><tspan dy="18" x="2716">post-import fixes are</tspan><tspan dy="18" x="2716">made here, as many</tspan><tspan dy="18" x="2716">as needed</tspan></text></g><g><text x="2575" y="1194" class="messageText" style="text-anchor: middle;">course + changes</text><line x1="2670" y1="1201" x2="2480" y2="1201" class="messageLine0" stroke-width="2" stroke="black" marker-end="url(#arrowhead)" style="fill: none;"></line></g><g><line x1="2460" y1="1016" x2="2860" y2="1016" class="loopLine"></line><line x1="2860" y1="1016" x2="2860" y2="1211" class="loopLine"></line><line x1="2460" y1="1211" x2="2860" y2="1211" class="loopLine"></line><line x1="2460" y1="1016" x2="2460" y2="1211" class="loopLine"></line><polygon points="2460,1016 2510,1016 2510,1029 2501.6,1036 2460,1036" class="labelBox"></polygon><text x="2467.5" y="1031" fill="black" class="labelText"><tspan x="2467.5" fill="black">loop</tspan></text><text x="2660" y="1031" fill="black" class="loopText" style="text-anchor: middle;"><tspan x="2660" fill="black">[ Every API Fix Module ]</tspan></text></g><g><text x="1375" y="1239" class="messageText" style="text-anchor: middle;">course + changes</text><line x1="2470" y1="1246" x2="280" y2="1246" class="messageLine0" stroke-width="2" stroke="black" marker-end="url(#arrowhead)" style="fill: none;"></line></g><g><text x="1577.5" y="1274" class="messageText" style="text-anchor: middle;">course</text><line x1="280" y1="1281" x2="2875" y2="1281" class="messageLine0" stroke-width="2" stroke="black" marker-end="url(#crosshead)" style="fill: none;"></line></g><g><rect x="2870" y="1283" fill="#f4f4f4" stroke="#666" width="10" height="173" rx="0" ry="0"></rect></g><g><text x="2977.5" y="1309" class="messageText" style="text-anchor: middle;">course</text><line x1="2880" y1="1316" x2="3075" y2="1316" class="messageLine0" stroke-width="2" stroke="black" marker-end="url(#arrowhead)" style="fill: none;"></line></g><g><text x="3077.5" y="1344" class="messageText" style="text-anchor: middle;">course</text><line x1="2880" y1="1351" x2="3275" y2="1351" class="messageLine0" stroke-width="2" stroke="black" marker-end="url(#arrowhead)" style="fill: none;"></line></g><g><text x="3177.5" y="1379" class="messageText" style="text-anchor: middle;">course</text><line x1="2880" y1="1386" x2="3475" y2="1386" class="messageLine0" stroke-width="2" stroke="black" marker-end="url(#arrowhead)" style="fill: none;"></line></g><g><rect x="3470" y="1388" fill="#f4f4f4" stroke="#666" width="10" height="33" rx="0" ry="0"></rect></g><g><text x="3175" y="1414" class="messageText" style="text-anchor: middle;">course, report</text><line x1="3470" y1="1421" x2="2880" y2="1421" class="messageLine0" stroke-width="2" stroke="black" marker-end="url(#arrowhead)" style="fill: none;"></line></g><g><text x="1575" y="1449" class="messageText" style="text-anchor: middle;">course, report</text><line x1="2870" y1="1456" x2="280" y2="1456" class="messageLine0" stroke-width="2" stroke="black" marker-end="url(#arrowhead)" style="fill: none;"></line></g><g><text x="175" y="1484" class="messageText" style="text-anchor: middle;">course, report</text><line x1="270" y1="1491" x2="80" y2="1491" class="messageLine0" stroke-width="2" stroke="black" marker-end="url(#arrowhead)" style="fill: none;"></line></g><g><rect x="0" y="1511" fill="#eaeaea" stroke="#666" width="150" height="65" rx="3" ry="3" class="actor"></rect><text x="75" y="1543.5" style="text-anchor: middle;" dominant-baseline="central" alignment-baseline="central" class="actor"><tspan x="75" dy="0">CLI</tspan></text></g><g><rect x="200" y="1511" fill="#eaeaea" stroke="#666" width="150" height="65" rx="3" ry="3" class="actor"></rect><text x="275" y="1543.5" style="text-anchor: middle;" dominant-baseline="central" alignment-baseline="central" class="actor"><tspan x="275" dy="0">main.js</tspan></text></g><g><rect x="400" y="1511" fill="#eaeaea" stroke="#666" width="150" height="65" rx="3" ry="3" class="actor"></rect><text x="475" y="1543.5" style="text-anchor: middle;" dominant-baseline="central" alignment-baseline="central" class="actor"><tspan x="475" dy="0">indexer.js</tspan></text></g><g><rect x="600" y="1511" fill="#eaeaea" stroke="#666" width="150" height="65" rx="3" ry="3" class="actor"></rect><text x="675" y="1543.5" style="text-anchor: middle;" dominant-baseline="central" alignment-baseline="central" class="actor"><tspan x="675" dy="0">unzip.js</tspan></text></g><g><rect x="800" y="1511" fill="#eaeaea" stroke="#666" width="150" height="65" rx="3" ry="3" class="actor"></rect><text x="875" y="1543.5" style="text-anchor: middle;" dominant-baseline="central" alignment-baseline="central" class="actor"><tspan x="875" dy="0">indexCourse.js</tspan></text></g><g><rect x="1000" y="1511" fill="#eaeaea" stroke="#666" width="150" height="65" rx="3" ry="3" class="actor"></rect><text x="1075" y="1543.5" style="text-anchor: middle;" dominant-baseline="central" alignment-baseline="central" class="actor"><tspan x="1075" dy="0">preImport.js</tspan></text></g><g><rect x="1200" y="1511" fill="#eaeaea" stroke="#666" width="150" height="65" rx="3" ry="3" class="actor"></rect><text x="1275" y="1543.5" style="text-anchor: middle;" dominant-baseline="central" alignment-baseline="central" class="actor"><tspan x="1275" dy="0">Fix Modules</tspan></text></g><g><rect x="1400" y="1511" fill="#eaeaea" stroke="#666" width="150" height="65" rx="3" ry="3" class="actor"></rect><text x="1475" y="1543.5" style="text-anchor: middle;" dominant-baseline="central" alignment-baseline="central" class="actor"><tspan x="1475" dy="0">zipCourse.js</tspan></text></g><g><rect x="1600" y="1511" fill="#eaeaea" stroke="#666" width="150" height="65" rx="3" ry="3" class="actor"></rect><text x="1675" y="1543.5" style="text-anchor: middle;" dominant-baseline="central" alignment-baseline="central" class="actor"><tspan x="1675" dy="0">importCourse.js</tspan></text></g><g><rect x="1800" y="1511" fill="#eaeaea" stroke="#666" width="150" height="65" rx="3" ry="3" class="actor"></rect><text x="1875" y="1543.5" style="text-anchor: middle;" dominant-baseline="central" alignment-baseline="central" class="actor"><tspan x="1875" dy="0">createCourse.js</tspan></text></g><g><rect x="2000" y="1511" fill="#eaeaea" stroke="#666" width="150" height="65" rx="3" ry="3" class="actor"></rect><text x="2075" y="1543.5" style="text-anchor: middle;" dominant-baseline="central" alignment-baseline="central" class="actor"><tspan x="2075" dy="0">uploadCourse.js</tspan></text></g><g><rect x="2200" y="1511" fill="#eaeaea" stroke="#666" width="150" height="65" rx="3" ry="3" class="actor"></rect><text x="2275" y="1543.5" style="text-anchor: middle;" dominant-baseline="central" alignment-baseline="central" class="actor"><tspan x="2275" dy="0">migrationIssues.js</tspan></text></g><g><rect x="2400" y="1511" fill="#eaeaea" stroke="#666" width="150" height="65" rx="3" ry="3" class="actor"></rect><text x="2475" y="1543.5" style="text-anchor: middle;" dominant-baseline="central" alignment-baseline="central" class="actor"><tspan x="2475" dy="0">postImport.js</tspan></text></g><g><rect x="2600" y="1511" fill="#eaeaea" stroke="#666" width="150" height="65" rx="3" ry="3" class="actor"></rect><text x="2675" y="1543.5" style="text-anchor: middle;" dominant-baseline="central" alignment-baseline="central" class="actor"><tspan x="2675" dy="0">API Fixes</tspan></text></g><g><rect x="2800" y="1511" fill="#eaeaea" stroke="#666" width="150" height="65" rx="3" ry="3" class="actor"></rect><text x="2875" y="1543.5" style="text-anchor: middle;" dominant-baseline="central" alignment-baseline="central" class="actor"><tspan x="2875" dy="0">cleanUp.js</tspan></text></g><g><rect x="3000" y="1511" fill="#eaeaea" stroke="#666" width="150" height="65" rx="3" ry="3" class="actor"></rect><text x="3075" y="1543.5" style="text-anchor: middle;" dominant-baseline="central" alignment-baseline="central" class="actor"><tspan x="3075" dy="0">deleteCourse.js</tspan></text></g><g><rect x="3200" y="1511" fill="#eaeaea" stroke="#666" width="150" height="65" rx="3" ry="3" class="actor"></rect><text x="3275" y="1543.5" style="text-anchor: middle;" dominant-baseline="central" alignment-baseline="central" class="actor"><tspan x="3275" dy="0">removeFiles.js</tspan></text></g><g><rect x="3400" y="1511" fill="#eaeaea" stroke="#666" width="150" height="65" rx="3" ry="3" class="actor"></rect><text x="3475" y="1543.5" style="text-anchor: middle;" dominant-baseline="central" alignment-baseline="central" class="actor"><tspan x="3475" dy="0">generateReport.js</tspan></text></g></svg>
